<svg xmlns="http://www.w3.org/2000/svg" viewBox="0 0 512 512">
<defs>
  <linearGradient id="g" x1="74" y1="84" x2="438" y2="426" gradientUnits="userSpaceOnUse">
    <stop stop-color="#6FFFE8"/><stop offset=".45" stop-color="#70A7FF"/><stop offset="1" stop-color="#B98CFF"/>
  </linearGradient>
  <radialGradient id="bg" cx="42%" cy="20%" r="90%">
    <stop stop-color="#1A1D27"/><stop offset=".45" stop-color="#0F1118"/><stop offset="1" stop-color="#07080C"/>
  </radialGradient>
  <filter id="glow" x="-50%" y="-50%" width="200%" height="200%">
    <feGaussianBlur stdDeviation="9" result="b"/><feMerge><feMergeNode in="b"/><feMergeNode in="SourceGraphic"/></feMerge>
  </filter>
</defs>
<rect x="18" y="18" width="476" height="476" rx="124" fill="url(#bg)"/>
<rect x="21" y="21" width="470" height="470" rx="121" fill="none" stroke="url(#g)" stroke-opacity=".7" stroke-width="5"/>
<path d="M92 305 L146 249 L197 300 L272 188 L332 247 L417 167" fill="none" stroke="url(#g)" stroke-width="31" stroke-linecap="round" stroke-linejoin="round" filter="url(#glow)"/>
<path d="M92 305 L146 249 L197 300 L272 188 L332 247 L417 167" fill="none" stroke="#FFFFFF" stroke-opacity=".25" stroke-width="4" stroke-linecap="round" stroke-linejoin="round"/>
<path d="M104 378 H408" stroke="#FFFFFF" stroke-opacity=".08" stroke-width="2"/>
<g fill="url(#g)">
  <rect x="128" y="330" width="28" height="48" rx="8"/><rect x="138" y="312" width="8" height="18" rx="4"/>
  <rect x="218" y="316" width="28" height="62" rx="8"/><rect x="228" y="291" width="8" height="25" rx="4"/>
  <rect x="309" y="276" width="28" height="102" rx="8"/><rect x="319" y="247" width="8" height="29" rx="4"/>
</g>
<circle cx="417" cy="167" r="8" fill="#D8FF72"/>
<circle cx="417" cy="167" r="17" fill="none" stroke="#D8FF72" stroke-opacity=".18" stroke-width="2"/>
</svg>