<svg xmlns="http://www.w3.org/2000/svg" viewBox="0 0 512 512">
  <defs>
    <linearGradient id="bg" x1="46" y1="32" x2="466" y2="484" gradientUnits="userSpaceOnUse">
      <stop stop-color="#151923"/>
      <stop offset=".55" stop-color="#0B0D13"/>
      <stop offset="1" stop-color="#050609"/>
    </linearGradient>
    <linearGradient id="edge" x1="58" y1="58" x2="456" y2="458" gradientUnits="userSpaceOnUse">
      <stop stop-color="#9EF5E0"/>
      <stop offset=".42" stop-color="#53B9FF"/>
      <stop offset=".73" stop-color="#6C63FF"/>
      <stop offset="1" stop-color="#D5A8FF"/>
    </linearGradient>
    <linearGradient id="mp" x1="120" y1="390" x2="392" y2="126" gradientUnits="userSpaceOnUse">
      <stop stop-color="#67F3D2"/>
      <stop offset=".38" stop-color="#3AA7FF"/>
      <stop offset=".72" stop-color="#654DFF"/>
      <stop offset="1" stop-color="#E3B7FF"/>
    </linearGradient>
    <filter id="shadow" x="-40%" y="-40%" width="180%" height="180%">
      <feDropShadow dx="0" dy="18" stdDeviation="18" flood-color="#000000" flood-opacity=".55"/>
    </filter>
    <filter id="glow" x="-50%" y="-50%" width="200%" height="200%">
      <feGaussianBlur stdDeviation="12" result="blur"/>
      <feMerge><feMergeNode in="blur"/><feMergeNode in="SourceGraphic"/></feMerge>
    </filter>
    <clipPath id="round"><rect x="22" y="22" width="468" height="468" rx="112"/></clipPath>
  </defs>
  <rect width="512" height="512" rx="118" fill="#050609"/>
  <g filter="url(#shadow)">
    <rect x="22" y="22" width="468" height="468" rx="112" fill="url(#bg)"/>
    <rect x="29" y="29" width="454" height="454" rx="105" fill="none" stroke="url(#edge)" stroke-width="5" opacity=".92"/>
  </g>
  <g clip-path="url(#round)" opacity=".26">
    <ellipse cx="126" cy="72" rx="210" ry="112" fill="#54E9FF" filter="url(#glow)"/>
    <ellipse cx="414" cy="442" rx="180" ry="110" fill="#8B5CFF" filter="url(#glow)"/>
  </g>
  <g filter="url(#glow)" opacity=".30">
    <path d="M111 362V150c0-11 9-20 20-20h26c9 0 16 5 20 13l56 110 63-126c4-9 12-14 22-14h24c11 0 20 9 20 20v229" fill="none" stroke="url(#mp)" stroke-width="38" stroke-linecap="round" stroke-linejoin="round"/>
  </g>
  <g filter="url(#shadow)">
    <path d="M111 362V150c0-11 9-20 20-20h26c9 0 16 5 20 13l56 110 63-126c4-9 12-14 22-14h24c11 0 20 9 20 20v229" fill="none" stroke="url(#mp)" stroke-width="38" stroke-linecap="round" stroke-linejoin="round"/>
    <path d="M111 362V150c0-11 9-20 20-20h26c9 0 16 5 20 13l56 110 63-126c4-9 12-14 22-14h24c11 0 20 9 20 20v229" fill="none" stroke="#F7FEFF" stroke-opacity=".24" stroke-width="6" stroke-linecap="round" stroke-linejoin="round"/>
  </g>
  <circle cx="400" cy="362" r="11" fill="#A7F3D0" opacity=".95"/>
</svg>